<svg width="200" height="100" viewBox="0 0 200 100" fill="none" xmlns="http://www.w3.org/2000/svg">
  <rect x="10" y="30" width="45" height="55" rx="6" fill="#2563EB" fill-opacity="0.05" stroke="#2563EB" stroke-width="1.5" stroke-dasharray="2 2"/>
  <rect x="18" y="42" width="29" height="4" rx="2" fill="#2563EB" fill-opacity="0.2"/>
  <rect x="18" y="52" width="20" height="4" rx="2" fill="#2563EB" fill-opacity="0.2"/>

  <rect x="65" y="15" width="45" height="70" rx="6" fill="#2563EB" fill-opacity="0.1" stroke="#2563EB" stroke-width="2"/>
  <rect x="73" y="27" width="29" height="6" rx="3" fill="#2563EB"/>
  <rect x="73" y="40" width="18" height="6" rx="3" fill="#2563EB" fill-opacity="0.5"/>
  <rect x="73" y="53" width="25" height="6" rx="3" fill="#2563EB" fill-opacity="0.3"/>

  <rect x="120" y="40" width="45" height="45" rx="6" fill="#2563EB" fill-opacity="0.05" stroke="#2563EB" stroke-width="1.5" stroke-dasharray="2 2"/>
  <path d="M135 60L140 65L150 55" stroke="#2563EB" stroke-width="2" stroke-linecap="round" stroke-linejoin="round"/>

  <path d="M10 85C40 75 60 40 100 45C140 50 160 20 190 15" stroke="#2563EB" stroke-width="2" stroke-linecap="round" stroke-dasharray="4 4" opacity="0.6"/>
  
  <path d="M185 15H190V20" stroke="#2563EB" stroke-width="2" stroke-linecap="round" stroke-linejoin="round"/>
</svg>