<svg width="800" height="200" viewBox="0 0 800 200" fill="none" xmlns="http://www.w3.org/2000/svg">
  <rect width="800" height="200" fill="white" fill-opacity="0"/>

  <g transform="translate(50, 50)">
    <rect x="0" y="0" width="100" height="100" rx="16" fill="#F0F7FF" stroke="#2563EB" stroke-width="2"/>
    <rect x="25" y="30" width="50" height="4" rx="2" fill="#2563EB" fill-opacity="0.3"/>
    <rect x="25" y="45" width="40" height="4" rx="2" fill="#2563EB" fill-opacity="0.3"/>
    <rect x="25" y="60" width="50" height="4" rx="2" fill="#2563EB" fill-opacity="0.3"/>
    <circle cx="50" cy="115" r="4" fill="#2563EB"/>
  </g>

  <path d="M170 100H290" stroke="#CBD5E1" stroke-width="2" stroke-dasharray="6 6"/>
  <circle cx="230" cy="100" r="4" fill="#2563EB" fill-opacity="0.5"/>

  <g transform="translate(325, 25)">
    <circle cx="75" cy="75" r="70" stroke="#2563EB" stroke-width="1" stroke-dasharray="4 4" stroke-opacity="0.2"/>
    <circle cx="75" cy="75" r="60" fill="white" stroke="#2563EB" stroke-width="2.5"/>
    <path d="M75 45L85 70H65L75 105" stroke="#2563EB" stroke-width="4" stroke-linecap="round" stroke-linejoin="round"/>
    <circle cx="75" cy="75" r="5" fill="#2563EB">
        <animate attributeName="r" values="5;8;5" dur="2s" repeatCount="indefinite" />
        <animate attributeName="opacity" values="1;0.5;1" dur="2s" repeatCount="indefinite" />
    </circle>
  </g>

  <path d="M510 100H630" stroke="#CBD5E1" stroke-width="2" stroke-dasharray="6 6"/>
  <circle cx="570" cy="100" r="4" fill="#2563EB" fill-opacity="0.5"/>

  <g transform="translate(650, 50)">
    <rect x="0" y="0" width="100" height="100" rx="16" fill="#2563EB"/>
    <path d="M35 50L45 60L65 40" stroke="white" stroke-width="5" stroke-linecap="round" stroke-linejoin="round"/>
    
    <circle cx="120" cy="20" r="10" fill="#2563EB" fill-opacity="0.8"/>
    <circle cx="135" cy="50" r="10" fill="#2563EB" fill-opacity="0.4"/>
    <circle cx="120" cy="80" r="10" fill="#2563EB" fill-opacity="0.6"/>
    
    <path d="M100 40L112 28" stroke="#CBD5E1" stroke-width="1.5"/>
    <path d="M100 50L125 50" stroke="#CBD5E1" stroke-width="1.5"/>
    <path d="M100 60L112 72" stroke="#CBD5E1" stroke-width="1.5"/>
  </g>
</svg>