<svg width="600" height="400" viewBox="0 0 600 400" fill="none" xmlns="http://www.w3.org/2000/svg">
  <circle cx="300" cy="200" r="150" stroke="#2563EB" stroke-width="1" stroke-dasharray="10 10" stroke-opacity="0.2" />
  
  <path d="M400 200C400 255.228 355.228 300 300 300C244.772 300 200 255.228 200 200C200 144.772 244.772 100 300 100" stroke="#2563EB" stroke-width="4" stroke-linecap="round" stroke-dasharray="1 10"/>
  <path d="M300 100L315 100L300 85L285 100H300" fill="#2563EB"/>

  <g transform="translate(260, 60)">
    <rect width="80" height="80" rx="40" fill="white" stroke="#2563EB" stroke-width="2"/>
    <circle cx="40" cy="35" r="15" fill="#2563EB" fill-opacity="0.2" stroke="#2563EB" stroke-width="1.5"/>
    <path d="M20 65C20 55 30 50 40 50C50 50 60 55 60 65" stroke="#2563EB" stroke-width="2" stroke-linecap="round"/>
  </g>

  <g transform="translate(110, 220)">
    <rect width="80" height="80" rx="40" fill="white" stroke="#2563EB" stroke-width="2"/>
    <path d="M30 40L40 50L55 35" stroke="#2563EB" stroke-width="3" stroke-linecap="round" stroke-linejoin="round"/>
  </g>

  <g transform="translate(410, 220)">
    <rect width="80" height="80" rx="40" fill="#2563EB"/>
    <path d="M30 35L25 40L30 45M50 35L55 40L50 45" stroke="white" stroke-width="2" stroke-linecap="round" stroke-linejoin="round"/>
    <path d="M38 50L42 30" stroke="white" stroke-width="2" stroke-linecap="round"/>
  </g>
</svg>